<mxfile host="app.diagrams.net" agent="Mozilla/5.0 (Windows NT 10.0; Win64; x64) AppleWebKit/537.36 (KHTML, like Gecko) Chrome/132.0.0.0 Whale/4.30.291.11 Safari/537.36" version="26.0.16">
  <diagram id="C5RBs43oDa-KdzZeNtuy" name="Page-1">
    <mxGraphModel dx="1385" dy="761" grid="1" gridSize="10" guides="1" tooltips="1" connect="1" arrows="1" fold="1" page="1" pageScale="1" pageWidth="827" pageHeight="1169" math="0" shadow="0">
      <root>
        <mxCell id="WIyWlLk6GJQsqaUBKTNV-0" />
        <mxCell id="WIyWlLk6GJQsqaUBKTNV-1" parent="WIyWlLk6GJQsqaUBKTNV-0" />
        <mxCell id="NivWS9lBjwapP_xfxxEY-9" value="" style="edgeStyle=orthogonalEdgeStyle;rounded=0;orthogonalLoop=1;jettySize=auto;html=1;" edge="1" parent="WIyWlLk6GJQsqaUBKTNV-1" target="NivWS9lBjwapP_xfxxEY-8">
          <mxGeometry relative="1" as="geometry">
            <mxPoint x="130" y="90" as="sourcePoint" />
          </mxGeometry>
        </mxCell>
        <mxCell id="NivWS9lBjwapP_xfxxEY-12" value="" style="edgeStyle=orthogonalEdgeStyle;rounded=0;orthogonalLoop=1;jettySize=auto;html=1;" edge="1" parent="WIyWlLk6GJQsqaUBKTNV-1" source="NivWS9lBjwapP_xfxxEY-8" target="NivWS9lBjwapP_xfxxEY-11">
          <mxGeometry relative="1" as="geometry" />
        </mxCell>
        <mxCell id="NivWS9lBjwapP_xfxxEY-8" value="./run_ipx.sh" style="whiteSpace=wrap;html=1;rounded=1;glass=0;strokeWidth=1;shadow=0;" vertex="1" parent="WIyWlLk6GJQsqaUBKTNV-1">
          <mxGeometry x="70" y="120" width="120" height="40" as="geometry" />
        </mxCell>
        <mxCell id="NivWS9lBjwapP_xfxxEY-14" value="" style="edgeStyle=orthogonalEdgeStyle;rounded=0;orthogonalLoop=1;jettySize=auto;html=1;" edge="1" parent="WIyWlLk6GJQsqaUBKTNV-1" source="NivWS9lBjwapP_xfxxEY-11" target="NivWS9lBjwapP_xfxxEY-13">
          <mxGeometry relative="1" as="geometry" />
        </mxCell>
        <mxCell id="NivWS9lBjwapP_xfxxEY-11" value="./capture_serial_nfhost.sh" style="whiteSpace=wrap;html=1;rounded=1;glass=0;strokeWidth=1;shadow=0;" vertex="1" parent="WIyWlLk6GJQsqaUBKTNV-1">
          <mxGeometry x="50" y="190" width="160" height="40" as="geometry" />
        </mxCell>
        <mxCell id="NivWS9lBjwapP_xfxxEY-13" value="디버깅 모드인가?" style="rhombus;whiteSpace=wrap;html=1;rounded=1;glass=0;strokeWidth=1;shadow=0;" vertex="1" parent="WIyWlLk6GJQsqaUBKTNV-1">
          <mxGeometry x="50" y="260" width="160" height="60" as="geometry" />
        </mxCell>
        <mxCell id="NivWS9lBjwapP_xfxxEY-16" value="전원 on" style="ellipse;whiteSpace=wrap;html=1;" vertex="1" parent="WIyWlLk6GJQsqaUBKTNV-1">
          <mxGeometry x="70" y="50" width="120" height="40" as="geometry" />
        </mxCell>
        <mxCell id="NivWS9lBjwapP_xfxxEY-19" value="./nf_host" style="whiteSpace=wrap;html=1;rounded=1;glass=0;strokeWidth=1;shadow=0;" vertex="1" parent="WIyWlLk6GJQsqaUBKTNV-1">
          <mxGeometry x="290" y="270" width="120" height="40" as="geometry" />
        </mxCell>
        <mxCell id="NivWS9lBjwapP_xfxxEY-22" value="" style="endArrow=classic;html=1;rounded=0;exitX=0.956;exitY=0.5;exitDx=0;exitDy=0;exitPerimeter=0;" edge="1" parent="WIyWlLk6GJQsqaUBKTNV-1" source="NivWS9lBjwapP_xfxxEY-13">
          <mxGeometry relative="1" as="geometry">
            <mxPoint x="210" y="289.5" as="sourcePoint" />
            <mxPoint x="290" y="290" as="targetPoint" />
          </mxGeometry>
        </mxCell>
        <mxCell id="NivWS9lBjwapP_xfxxEY-23" value="No" style="edgeLabel;resizable=0;html=1;;align=center;verticalAlign=middle;" connectable="0" vertex="1" parent="NivWS9lBjwapP_xfxxEY-22">
          <mxGeometry relative="1" as="geometry" />
        </mxCell>
        <mxCell id="NivWS9lBjwapP_xfxxEY-27" value="" style="endArrow=classic;html=1;rounded=0;exitX=0.5;exitY=1;exitDx=0;exitDy=0;" edge="1" parent="WIyWlLk6GJQsqaUBKTNV-1" source="NivWS9lBjwapP_xfxxEY-13">
          <mxGeometry relative="1" as="geometry">
            <mxPoint x="370" y="340" as="sourcePoint" />
            <mxPoint x="130" y="370" as="targetPoint" />
          </mxGeometry>
        </mxCell>
        <mxCell id="NivWS9lBjwapP_xfxxEY-28" value="Yes" style="edgeLabel;resizable=0;html=1;;align=center;verticalAlign=middle;" connectable="0" vertex="1" parent="NivWS9lBjwapP_xfxxEY-27">
          <mxGeometry relative="1" as="geometry" />
        </mxCell>
        <mxCell id="NivWS9lBjwapP_xfxxEY-29" value="./nf_host &amp;gt;&amp;gt; log.log" style="rounded=1;whiteSpace=wrap;html=1;" vertex="1" parent="WIyWlLk6GJQsqaUBKTNV-1">
          <mxGeometry x="50" y="370" width="160" height="40" as="geometry" />
        </mxCell>
      </root>
    </mxGraphModel>
  </diagram>
</mxfile>
